<?xml version="1.0" encoding="UTF-8" standalone="no"?>
<!-- Created with Inkscape (http://www.inkscape.org/) -->

<svg
   xmlns:dc="http://purl.org/dc/elements/1.1/"
   xmlns:cc="http://creativecommons.org/ns#"
   xmlns:rdf="http://www.w3.org/1999/02/22-rdf-syntax-ns#"
   xmlns:svg="http://www.w3.org/2000/svg"
   xmlns="http://www.w3.org/2000/svg"
   xmlns:sodipodi="http://sodipodi.sourceforge.net/DTD/sodipodi-0.dtd"
   xmlns:inkscape="http://www.inkscape.org/namespaces/inkscape"
   width="210mm"
   height="297mm"
   viewBox="0 0 210 297"
   version="1.1"
   id="svg8"
   inkscape:version="0.92.3 (2405546, 2018-03-11)"
   sodipodi:docname="log4.svg">
  <defs
     id="defs2">
    <inkscape:perspective
       sodipodi:type="inkscape:persp3d"
       inkscape:vp_x="3.7797614 : 150.76786 : 1"
       inkscape:vp_y="0 : 1000 : 0"
       inkscape:vp_z="213.77977 : 150.76786 : 1"
       inkscape:persp3d-origin="108.77977 : 101.26786 : 1"
       id="perspective71" />
  </defs>
  <sodipodi:namedview
     id="base"
     pagecolor="#ffffff"
     bordercolor="#666666"
     borderopacity="1.0"
     inkscape:pageopacity="0.0"
     inkscape:pageshadow="2"
     inkscape:zoom="0.49497475"
     inkscape:cx="470.72707"
     inkscape:cy="627.74123"
     inkscape:document-units="mm"
     inkscape:current-layer="layer1"
     showgrid="false"
     inkscape:window-width="1366"
     inkscape:window-height="705"
     inkscape:window-x="-8"
     inkscape:window-y="-8"
     inkscape:window-maximized="1" />
  <metadata
     id="metadata5">
    <rdf:RDF>
      <cc:Work
         rdf:about="">
        <dc:format>image/svg+xml</dc:format>
        <dc:type
           rdf:resource="http://purl.org/dc/dcmitype/StillImage" />
        <dc:title></dc:title>
      </cc:Work>
    </rdf:RDF>
  </metadata>
  <g
     inkscape:label="Capa 1"
     inkscape:groupmode="layer"
     id="layer1">
    <g
       id="g174"
       transform="translate(0,7.4835468)">
      <path
         style="fill:#8f8f8f;stroke-width:0.10954247"
         d="m 95.682259,202.7287 c -0.878365,-0.1002 -2.288197,-0.58889 -2.919192,-1.01187 -1.768281,-1.18534 -2.304635,-2.96884 -1.356398,-4.51032 0.06083,-0.0988 -0.144918,0.0225 -0.457162,0.2696 -1.81768,1.4386 -3.965639,2.19946 -5.874166,2.08075 -1.24961,-0.0777 -2.534608,-0.52447 -3.804716,-1.32275 -1.151813,-0.72393 -1.608435,-1.26576 -1.813948,-2.15245 -0.199599,-0.86115 0.111498,-1.96757 0.815672,-2.90094 l 0.257494,-0.34131 -0.77223,0.42332 c -0.987225,0.54116 -2.453687,1.00956 -3.560084,1.13711 -1.711871,0.19734 -3.489681,-0.22322 -5.074205,-1.20038 -0.491013,-0.3028 -1.048671,-0.72961 -1.239243,-0.94846 -1.059954,-1.21725 -1.135138,-2.98384 -0.19014,-4.46755 l 0.277031,-0.43495 -0.701931,0.4269 c -0.386068,0.23479 -1.143363,0.56864 -1.682886,0.74189 -0.857957,0.2755 -1.142568,0.32016 -2.269976,0.35621 -1.140774,0.0365 -1.411887,0.0135 -2.357254,-0.19974 -1.310018,-0.29552 -2.776962,-0.8967 -3.530492,-1.44687 -1.623326,-1.18524 -1.930877,-3.04727 -0.759732,-4.59965 0.270617,-0.35871 2.20036,-2.256 4.834953,-4.75365 l 0.581269,-0.55105 -3.666108,-3.28861 -3.666107,-3.28861 1.217269,-1.79939 c 0.669501,-0.98966 1.254717,-1.7991 1.300483,-1.79876 0.04573,4.5e-4 1.995775,1.69438 4.333354,3.76454 l 4.250145,3.76392 1.649911,-0.0479 c 3.301714,-0.096 4.881365,0.3786 6.199018,1.86233 0.836533,0.94197 0.988774,1.38303 1.001835,2.90233 l 0.0114,1.32715 0.551633,0.43099 0.551633,0.431 0.781744,-0.0599 c 2.104873,-0.16133 3.958612,0.29692 5.420751,1.34005 0.477545,0.34069 1.030399,0.85009 1.228564,1.13201 0.401803,0.57161 0.736234,1.51454 0.739761,2.08575 0.0019,0.34411 0.06871,0.41575 0.793465,0.85372 l 0.791141,0.4781 h 1.779274 c 1.669857,0 1.828531,0.0155 2.580439,0.25199 0.936134,0.29445 1.472802,0.6182 2.283612,1.3776 0.759287,0.71115 1.104894,1.24608 1.298786,2.01027 l 0.156388,0.61637 2.002922,1.03984 c 7.032034,3.65076 8.194394,4.24186 8.630884,4.3891 0.62921,0.21226 2.14899,0.29662 2.89347,0.16061 1.16652,-0.21311 2.17204,-1.1706 2.15634,-2.05333 -0.006,-0.30605 -0.0855,-0.37505 -0.96808,-0.83467 -0.77259,-0.40234 -10.680197,-5.67829 -10.903988,-5.80654 -0.03345,-0.0192 -0.08499,-0.2909 -0.114599,-0.60388 -0.102207,-1.08029 0.618747,-1.58147 2.273107,-1.58014 l 0.83987,5.9e-4 8.93625,4.41347 c 8.71541,4.3044 8.95631,4.41576 9.74756,4.50627 1.09539,0.12529 2.07251,-0.0639 2.91851,-0.56507 1.60877,-0.95303 1.81839,-2.52359 0.50279,-3.76703 -0.14887,-0.14071 -4.56537,-2.4306 -9.81446,-5.08865 l -9.54377,-4.83282 -0.14902,-0.4831 c -0.3582,-1.16121 0.33455,-1.83165 2.03127,-1.96585 l 0.71305,-0.0564 11.2826,5.59947 c 10.66711,5.29401 11.32631,5.6058 12.08378,5.71541 2.17951,0.3154 3.68184,-0.36909 4.28441,-1.95207 0.25805,-0.67786 0.18687,-1.18054 -0.26021,-1.83777 -0.30366,-0.44639 -0.70137,-0.66011 -11.6498,-6.2605 -6.23447,-3.1891 -11.82854,-6.0526 -12.43127,-6.36336 -1.01726,-0.52449 -1.10223,-0.59364 -1.18479,-0.96412 -0.126,-0.5655 0.004,-1.17731 0.3093,-1.454 0.42105,-0.38177 0.80493,-0.47088 1.90459,-0.44207 l 1.00146,0.0262 12.74501,6.36658 c 7.00976,3.50162 12.89572,6.40515 13.07993,6.45229 0.55103,0.14099 2.33129,0.10948 3.06365,-0.0542 1.4003,-0.31302 2.5066,-1.29563 2.90442,-2.57971 0.34747,-1.12157 -0.1064,-2.13931 -1.339,-3.0025 -1.19104,-0.83408 -35.97777,-22.04515 -36.38984,-22.18857 -0.69129,-0.24058 -2.16915,-0.4297 -3.41114,-0.43651 -2.5344,-0.0139 -4.729889,0.76897 -6.294312,2.24443 -0.524941,0.49509 -0.646179,0.69571 -0.851379,1.40878 -0.967054,3.36052 -3.749616,5.91919 -7.973933,7.33235 -1.33758,0.44746 -3.468219,0.90362 -4.500008,0.96343 -1.618427,0.0938 -4.391912,-0.5644 -5.639631,-1.33843 -0.924433,-0.57347 -1.176739,-0.96398 -1.175091,-1.81872 0.0012,-0.6648 0.04272,-0.77304 0.55083,-1.43784 1.18056,-1.54471 1.72076,-3.21649 1.916513,-5.93112 0.122385,-1.69726 0.327941,-2.4582 1.00744,-3.7294 0.480909,-0.8997 1.296349,-1.98589 2.007062,-2.6735 l 0.580537,-0.56166 h -6.471647 c -3.559401,-4e-5 -6.47164,-0.012 -6.47164,-0.0266 0,-0.0146 0.624166,-0.93458 1.387042,-2.04444 l 1.387044,-2.01793 9.862702,-0.0449 9.862702,-0.0449 2.164015,-0.73015 c 3.343565,-1.12814 6.281934,-1.79683 9.093324,-2.06938 1.36349,-0.13218 1.83735,-0.1379 3.73925,-0.045 4.07509,0.19893 7.26547,0.55075 8.71712,0.96127 1.64953,0.4665 6.50689,1.33018 9.62103,1.7107 1.37838,0.16843 2.49795,0.24264 3.98637,0.26425 l 2.06969,0.0301 8.76151,12.72628 8.76149,12.72629 -1.38355,2.20704 -1.38353,2.20705 0.72223,0.73226 c 1.34473,1.36342 1.94727,2.63362 1.94727,4.10496 0,1.09578 -0.33426,2.00377 -1.1569,3.14256 -1.06856,1.47924 -2.84379,2.47385 -5.35818,3.00201 -0.60895,0.12792 -1.51716,0.25823 -2.01822,0.28957 l -0.91103,0.057 -0.0727,0.95427 c -0.13082,1.71504 -0.79754,2.71168 -2.60664,3.89645 -1.77933,1.16527 -3.76964,1.65794 -6.33652,1.5685 l -1.3019,-0.0453 -0.002,0.23865 c -0.005,0.5332 -0.42422,1.53877 -0.92777,2.22638 -0.93076,1.27096 -2.62508,2.26298 -4.61132,2.69991 -2.52067,0.5545 -5.75338,0.14035 -8.41865,-1.07853 l -0.50641,-0.23159 -0.28394,0.47017 c -1.36491,2.26017 -5.41251,3.61296 -9.19583,3.07348 -1.05802,-0.15087 -2.21111,-0.48605 -2.77955,-0.80796 l -0.39738,-0.22503 -0.64764,0.65052 c -1.89143,1.89986 -4.301506,2.84075 -6.603736,2.5781 z M 47.069078,170.99372 c -0.220322,-0.0559 -2.143124,-0.7292 -4.272898,-1.49623 -4.23283,-1.52443 -4.861088,-1.83378 -5.142705,-2.53222 -0.333547,-0.82722 -0.118513,-1.48195 1.013235,-3.08511 8.174378,-11.57921 16.1757,-23.19377 17.493473,-25.39317 0.722791,-1.20635 1.647092,-1.74357 3.001311,-1.74442 0.696763,-4.4e-4 1.015521,0.0928 5.171545,1.51221 2.509533,0.8571 4.612521,1.63279 4.852437,1.78982 0.864063,0.56555 1.146413,1.48839 0.736115,2.40591 -0.263733,0.58977 -18.349498,27.08099 -18.867065,27.63564 -0.240349,0.25756 -0.690218,0.58108 -0.999705,0.71892 -0.475352,0.21172 -0.719691,0.2537 -1.573932,0.27045 -0.556173,0.0109 -1.191491,-0.0259 -1.411811,-0.0818 z m 109.193812,-0.16664 c -1.24293,-0.4253 -1.65623,-0.87469 -4.09701,-4.45476 -2.62713,-3.85341 -7.57289,-11.03169 -10.48766,-15.22181 -1.11742,-1.60634 -3.02978,-4.27534 -4.24967,-5.93111 l -2.21799,-3.01049 -0.003,-0.62905 c -0.003,-0.69562 0.17984,-1.00925 0.84441,-1.44653 0.22348,-0.14704 2.39782,-0.94757 4.83187,-1.77894 l 4.42553,-1.51159 0.91374,0.0347 c 1.07862,0.041 1.77546,0.31567 2.46842,0.9729 0.41267,0.39138 19.23737,26.96342 19.5385,27.5796 0.24594,0.50326 0.1791,1.17539 -0.16659,1.67499 -0.53545,0.77388 -1.15866,1.04727 -5.71234,2.5059 -4.66423,1.49404 -5.05058,1.57122 -6.08828,1.21614 z"
         id="path65"
         inkscape:connector-curvature="0" />
      <path
         sodipodi:nodetypes="ccccscsccccccccccssscscscsscccsscccscccscccccccsccsssccsssscccs"
         style="fill:#98999b;stroke-width:0.65421385"
         d="M 7.8142207,109.08705 V 95.433679 l -2.68764,-0.236514 -2.68765,-0.236517 6.87116,-12.911735 C 20.433741,61.146223 26.628821,49.436188 27.488031,47.688643 c 0.44243,-0.899847 0.95755,-1.636082 1.14471,-1.636082 0.18716,0 1.36272,2.452471 2.61235,5.449936 l 2.27207,5.449932 -10.11678,19.325088 -10.11677,19.325087 v 13.568916 13.56892 h -2.73469 -2.7347003 z m 51.5793303,12.5941 c 0.15627,-0.5826 2.64382,-6.59726 5.52791,-13.36592 2.88409,-6.76866 5.24381,-12.443888 5.24381,-12.611617 0,-0.167721 -3.1156,-0.403518 -6.92356,-0.523972 l -6.92356,-0.219016 -11.96192,-27.300316 c -6.57905,-15.015165 -11.89315,-27.391894 -11.8091,-27.503827 0.084,-0.111955 11.35139,3.997003 25.03854,9.130985 13.68715,5.133979 25.50103,9.35707 26.25308,9.384649 0.75204,0.02741 6.9051,-2.418652 13.67347,-5.436061 6.768369,-3.017408 19.197559,-8.530786 27.620419,-12.251945 8.42286,-3.721163 19.21383,-8.530416 23.97991,-10.687233 4.76612,-2.156816 8.762,-3.783632 8.87977,-3.615144 0.11778,0.168501 -0.62347,2.042838 -1.64717,4.165231 -4.80904,9.970421 -27.65741,60.665993 -27.65741,61.365793 0,0.435351 -0.19315,0.791544 -0.42902,0.791544 -0.23596,0 -0.89996,1.144449 -1.47558,2.543221 -0.5756,1.398771 -3.58292,8.089398 -6.6829,14.868048 l -5.63636,12.32485 H 86.786661 c -23.04726,0 -27.62968,-0.17722 -27.39311,-1.05927 z m 87.438539,-14.00443 c 0.21938,-16.858759 0.48857,-18.320256 4.10026,-22.261632 1.70576,-1.861451 2.52541,-2.192404 5.42985,-2.192404 3.69533,0 5.38184,1.199577 7.56932,5.383888 1.00673,1.925759 1.15699,3.598909 1.40113,15.602248 0.15051,7.39484 0.19638,14.5896 0.10207,15.98837 l -0.17141,2.54323 h -9.31364 -9.31363 z M 181.19388,92.919835 C 172.62061,76.568538 165.11387,62.19492 164.51224,60.978457 163.91061,59.762 161.88009,55.89566 159.99999,52.386589 c -1.88011,-3.509065 -3.41836,-6.680768 -3.41836,-7.048221 0,-1.024696 5.0376,-12.588831 5.48398,-12.588831 0.39615,0 47.02215,88.830413 47.02215,89.585113 0,0.22319 -2.76886,0.3853 -6.15306,0.36029 l -6.15306,-0.0454 z M 28.050961,89.849051 c 0,-9.400936 2.30741,-14.060398 6.96285,-14.060398 5.11469,0 7.25757,4.071614 7.25757,13.789828 v 5.773408 h -7.11021 -7.11021 z"
         id="path140"
         inkscape:connector-curvature="0" />
      <flowRoot
         transform="matrix(0.2928878,0,0,0.28222898,0.46623403,-22.206584)"
         style="font-style:normal;font-weight:normal;font-size:40px;line-height:1.25;font-family:sans-serif;letter-spacing:0px;word-spacing:0px;fill:#000000;fill-opacity:1;stroke:none"
         id="flowRoot160"
         xml:space="preserve"><flowRegion
           id="flowRegion162"><rect
             y="857.85974"
             x="92.934036"
             height="127.27922"
             width="650.53827"
             id="rect164" /></flowRegion><flowPara
           id="flowPara166">NEGOCIOS INTELIGENTES</flowPara></flowRoot>    </g>
  </g>
</svg>
